<svg xmlns="http://www.w3.org/2000/svg" xmlns:xlink="http://www.w3.org/1999/xlink" xmlns:fi="http://pattern.flaticon.com/" x="0" y="0" width="900" height="650" viewBox="0 0 900 650"><rect x="0px" y="0px" width="100%" height="100%" opacity="1" fill="#000000"/><defs><g transform="matrix(-2.3308377546702383e-17 0.3806546926498413 0.3806546926498413 2.3308377546702383e-17 -0.44739130543644023 59.55234008789057)" id="L1_0"><path d="M260.655,361.891c-37.236-17.455-65.164-37.236-81.455-59.345h123.345c6.982,0,11.636-4.655,11.636-11.636    s-4.655-11.636-11.636-11.636H167.564c-2.327-8.145-4.655-15.127-4.655-23.273c0-36.073,30.255-64,54.691-81.455    c5.818-3.491,6.982-10.473,3.491-16.291s-10.473-6.982-16.291-3.491c-43.055,30.255-65.164,65.164-65.164,101.236    c0,48.873,39.564,94.255,111.709,126.836c43.055,19.782,73.309,44.218,88.436,70.982H209.455c-6.982,0-11.636,4.655-11.636,11.636    c0,6.982,4.655,11.636,11.636,11.636h138.473c1.164,3.491,1.164,8.145,1.164,11.636v11.636c0,6.982,4.655,11.636,11.636,11.636    s11.636-4.655,11.636-11.636v-11.636C372.364,439.855,332.8,394.473,260.655,361.891z" fill="#ffffff"/><path d="M221.091,390.982c-3.491-5.818-10.473-6.982-16.291-3.491c-43.055,30.255-65.164,65.164-65.164,101.236v11.636    c0,6.982,4.655,11.636,11.636,11.636c6.982,0,11.636-4.655,11.636-11.636v-11.636c0-36.073,30.255-64,54.691-81.455    C223.418,403.782,224.582,396.8,221.091,390.982z" fill="#ffffff"/><path d="M260.655,129.164c-43.055-19.782-73.309-44.218-88.436-70.982h130.327c6.982,0,11.636-4.655,11.636-11.636    s-4.655-11.636-11.636-11.636H164.073c-1.164-3.491-1.164-8.146-1.164-11.636V11.636C162.909,4.655,158.255,0,151.273,0    c-6.982,0-11.636,4.655-11.636,11.636v11.636c0,48.873,39.564,94.255,111.709,126.836c37.236,17.455,65.164,37.236,81.455,59.345    H209.455c-6.982,0-11.636,4.655-11.636,11.636c0,6.982,4.655,11.636,11.636,11.636h134.982c2.327,8.145,4.655,15.127,4.655,23.273    c0,36.073-30.255,65.164-55.855,82.618c-5.818,3.491-6.982,10.473-3.491,16.291c2.327,3.491,5.818,4.655,9.309,4.655    c2.327,0,4.655-1.164,6.982-2.327c43.055-29.091,66.327-64,66.327-101.236C372.364,207.127,332.8,161.745,260.655,129.164z" fill="#ffffff"/><path d="M360.727,0c-6.982,0-11.636,4.655-11.636,11.636v11.636c0,36.073-30.255,65.164-55.855,82.618    c-5.818,3.491-6.982,10.473-3.491,16.291c2.327,3.491,5.818,4.655,9.309,4.655c2.327,0,4.655-1.164,6.982-2.327    c43.055-29.091,66.327-64,66.327-101.236V11.636C372.364,4.655,367.709,0,360.727,0z" fill="#ffffff"/></g><g transform="matrix(-2.3308377546702383e-17 0.3806546926498413 0.3806546926498413 2.3308377546702383e-17 158.55260869456356 208.55234008789057)"><path d="M260.655,361.891c-37.236-17.455-65.164-37.236-81.455-59.345h123.345c6.982,0,11.636-4.655,11.636-11.636    s-4.655-11.636-11.636-11.636H167.564c-2.327-8.145-4.655-15.127-4.655-23.273c0-36.073,30.255-64,54.691-81.455    c5.818-3.491,6.982-10.473,3.491-16.291s-10.473-6.982-16.291-3.491c-43.055,30.255-65.164,65.164-65.164,101.236    c0,48.873,39.564,94.255,111.709,126.836c43.055,19.782,73.309,44.218,88.436,70.982H209.455c-6.982,0-11.636,4.655-11.636,11.636    c0,6.982,4.655,11.636,11.636,11.636h138.473c1.164,3.491,1.164,8.145,1.164,11.636v11.636c0,6.982,4.655,11.636,11.636,11.636    s11.636-4.655,11.636-11.636v-11.636C372.364,439.855,332.8,394.473,260.655,361.891z" fill="#ffffff"/><path d="M221.091,390.982c-3.491-5.818-10.473-6.982-16.291-3.491c-43.055,30.255-65.164,65.164-65.164,101.236v11.636    c0,6.982,4.655,11.636,11.636,11.636c6.982,0,11.636-4.655,11.636-11.636v-11.636c0-36.073,30.255-64,54.691-81.455    C223.418,403.782,224.582,396.8,221.091,390.982z" fill="#ffffff"/><path d="M260.655,129.164c-43.055-19.782-73.309-44.218-88.436-70.982h130.327c6.982,0,11.636-4.655,11.636-11.636    s-4.655-11.636-11.636-11.636H164.073c-1.164-3.491-1.164-8.146-1.164-11.636V11.636C162.909,4.655,158.255,0,151.273,0    c-6.982,0-11.636,4.655-11.636,11.636v11.636c0,48.873,39.564,94.255,111.709,126.836c37.236,17.455,65.164,37.236,81.455,59.345    H209.455c-6.982,0-11.636,4.655-11.636,11.636c0,6.982,4.655,11.636,11.636,11.636h134.982c2.327,8.145,4.655,15.127,4.655,23.273    c0,36.073-30.255,65.164-55.855,82.618c-5.818,3.491-6.982,10.473-3.491,16.291c2.327,3.491,5.818,4.655,9.309,4.655    c2.327,0,4.655-1.164,6.982-2.327c43.055-29.091,66.327-64,66.327-101.236C372.364,207.127,332.8,161.745,260.655,129.164z" fill="#ffffff"/><path d="M360.727,0c-6.982,0-11.636,4.655-11.636,11.636v11.636c0,36.073-30.255,65.164-55.855,82.618    c-5.818,3.491-6.982,10.473-3.491,16.291c2.327,3.491,5.818,4.655,9.309,4.655c2.327,0,4.655-1.164,6.982-2.327    c43.055-29.091,66.327-64,66.327-101.236V11.636C372.364,4.655,367.709,0,360.727,0z" fill="#ffffff"/></g></defs><g fi:class="KUsePattern"><pattern id="pattern_L1_0" width="350" height="350" patternUnits="userSpaceOnUse"><use xlink:href="#L1_0" x="-350" y="-350"/><use xlink:href="#L1_0" x="0" y="-350"/><use xlink:href="#L1_0" x="350" y="-350"/><use xlink:href="#L1_0" x="-350" y="0"/><use xlink:href="#L1_0" x="0" y="0"/><use xlink:href="#L1_0" x="350" y="0"/><use xlink:href="#L1_0" x="-350" y="350"/><use xlink:href="#L1_0" x="0" y="350"/><use xlink:href="#L1_0" x="350" y="350"/></pattern><rect x="0" y="0" width="100%" height="100%" fill="url(#pattern_L1_0)"/></g><g fi:class="KUsePattern" transform="matrix(1 0 0 1 20 20)"><pattern id="pattern_UNKNOWN" width="350" height="350" patternUnits="userSpaceOnUse"><use xlink:href="#UNKNOWN" x="-350" y="-350"/><use xlink:href="#UNKNOWN" x="0" y="-350"/><use xlink:href="#UNKNOWN" x="350" y="-350"/><use xlink:href="#UNKNOWN" x="-350" y="0"/><use xlink:href="#UNKNOWN" x="0" y="0"/><use xlink:href="#UNKNOWN" x="350" y="0"/><use xlink:href="#UNKNOWN" x="-350" y="350"/><use xlink:href="#UNKNOWN" x="0" y="350"/><use xlink:href="#UNKNOWN" x="350" y="350"/></pattern><rect x="0" y="0" width="100%" height="100%" fill="url(#pattern_UNKNOWN)"/></g></svg>